<?xml version="1.0" encoding="UTF-8" standalone="no" ?>
<!DOCTYPE svg PUBLIC "-//W3C//DTD SVG 1.1//EN" "http://www.w3.org/Graphics/SVG/1.1/DTD/svg11.dtd">
<svg xmlns="http://www.w3.org/2000/svg" xmlns:xlink="http://www.w3.org/1999/xlink" version="1.1" width="1000" height="322.16357" viewBox="-11.656915745755498 83.69331185388357 513.9266884124326 165.5684566572269" xml:space="preserve">
<desc>Created with Fabric.js 5.3.0</desc>
<defs>
</defs>
<g transform="matrix(76.0808981418 0 0 -76.0808981418 44.7954458119 146.1034237256)" id="lRHNij2wuf7i0sFGaxRTj"  >
<path style="stroke: none; stroke-width: 1; stroke-dasharray: none; stroke-linecap: butt; stroke-dashoffset: 0; stroke-linejoin: miter; stroke-miterlimit: 4; fill: rgb(255,255,255); fill-rule: nonzero; opacity: 1;"  transform=" translate(-0.289993295, -0.2998047)" d="M 0.04798889 0 L 0.19499207 0 L 0.19499207 0.22384644 L 0.34799195 0 L 0.5319977 0 L 0.36999513 0.22285462 C 0.45899964 0.24484253 0.5119934 0.3038025 0.5119934 0.40872193 C 0.5119934 0.52163699 0.42799378 0.5996094 0.29899598 0.5996094 L 0.04798889 0.5996094 L 0.04798889 0 M 0.084991458 0.027999878 L 0.084991458 0.57159426 L 0.1579895 0.57159426 L 0.1579895 0.027999878 L 0.084991458 0.027999878 M 0.19499207 0.33976747 L 0.19499207 0.47459413 L 0.30899049 0.47459413 C 0.34199525 0.47459413 0.36799623 0.44363404 0.36799623 0.4086609 C 0.36799623 0.37368775 0.34599305 0.33972169 0.31298829 0.33972169 L 0.19499207 0.33976747 Z" stroke-linecap="round" />
</g>
<g transform="matrix(76.0808981418 0 0 -76.0808981418 88.0092198454 145.3232978041)" id="ud29C4kUy16d_B4Vjo5CO"  >
<path style="stroke: none; stroke-width: 1; stroke-dasharray: none; stroke-linecap: butt; stroke-dashoffset: 0; stroke-linejoin: miter; stroke-miterlimit: 4; fill: rgb(255,255,255); fill-rule: nonzero; opacity: 1;"  transform=" translate(-0.3219909555, -0.3100586)" d="M 0.015991211 0 L 0.17399597 0 L 0.20298767 0.0619812 L 0.43998719 0.0619812 L 0.46998597 0 L 0.6279907 0 L 0.33399964 0.6201172 L 0.30799867 0.6201172 L 0.015991211 0 M 0.24899292 0.16699219 L 0.31900025 0.31903077 L 0.32099916 0.31903077 L 0.3899994 0.16699219 L 0.24899292 0.16699219 M 0.42999269 0.16699219 L 0.5109863 0.16699219 L 0.57699587 0.027999878 L 0.49398805 0.027999878 L 0.42999269 0.16699219 M 0.06599426 0.027999878 L 0.13198853 0.16699219 L 0.21299744 0.16699219 L 0.147995 0.027999878 L 0.06599426 0.027999878 Z" stroke-linecap="round" />
</g>
<g transform="matrix(76.0808981418 0 0 -76.0808981418 129.9299405936 146.0662753251)" id="lHM6-6KKhb_3JOBo6xBUS"  >
<path style="stroke: none; stroke-width: 1; stroke-dasharray: none; stroke-linecap: butt; stroke-dashoffset: 0; stroke-linejoin: miter; stroke-miterlimit: 4; fill: rgb(255,255,255); fill-rule: nonzero; opacity: 1;"  transform=" translate(-0.248992925, -0.300292975)" d="M 0.04499817 0.17643738 C 0.04499817 0.0683136 0.11898804 -0.01953125 0.25 -0.01953125 C 0.36299134 -0.01953125 0.45298768 0.0683136 0.45298768 0.17442322 C 0.45298768 0.2683258 0.40299989 0.32824708 0.29599 0.36021424 C 0.24499512 0.37519837 0.18998719 0.38319398 0.18998719 0.42814637 C 0.18998719 0.46722413 0.22099304 0.48632813 0.25299073 0.48632813 C 0.2939911 0.48632813 0.31498719 0.45817567 0.31498719 0.4241333 L 0.45298768 0.4241333 C 0.44499208 0.53526309 0.38198854 0.6201172 0.24899292 0.6201172 C 0.13598633 0.6201172 0.04499817 0.53227236 0.04499817 0.42614747 C 0.04499817 0.32325746 0.100997928 0.2763214 0.20199585 0.24035645 C 0.25099183 0.22337342 0.30999757 0.21038819 0.30999757 0.16543579 C 0.30999757 0.1343689 0.2869873 0.11328125 0.25 0.11328125 C 0.21598816 0.11328125 0.18798828 0.1414032 0.18798828 0.17643738 L 0.04499817 0.17643738 M 0.34199525 0.45214845 C 0.33299256 0.47727967 0.31199647 0.514328 0.25 0.514328 L 0.25 0.59210208 C 0.36698915 0.59210208 0.41099549 0.511322 0.4169922 0.45214845 L 0.34199525 0.45214845 M 0.07998657 0.1484375 L 0.1579895 0.1484375 C 0.16699219 0.11528015 0.19898987 0.08627319 0.25 0.08526611 L 0.25 0.008468628 C 0.15499878 0.008468628 0.08198547 0.07330322 0.07998657 0.1484375 Z" stroke-linecap="round" />
</g>
<g transform="matrix(76.0808981418 0 0 -76.0808981418 169.948149062 146.1034237256)" id="FsdzKKa32P3g7Ya4O1t3S"  >
<path style="stroke: none; stroke-width: 1; stroke-dasharray: none; stroke-linecap: butt; stroke-dashoffset: 0; stroke-linejoin: miter; stroke-miterlimit: 4; fill: rgb(255,255,255); fill-rule: nonzero; opacity: 1;"  transform=" translate(-0.27098847, -0.2998047)" d="M 0.04798889 0 L 0.19400025 0 L 0.19400025 0.2157898 L 0.29899598 0.2157898 C 0.4099884 0.2157898 0.49398805 0.29579164 0.49398805 0.4077301 C 0.49398805 0.50865176 0.42199708 0.5996094 0.29899598 0.5996094 L 0.04798889 0.5996094 L 0.04798889 0 M 0.084991458 0.027999878 L 0.084991458 0.57159426 L 0.15699768 0.57159426 L 0.15699768 0.027999878 L 0.084991458 0.027999878 M 0.19400025 0.34179688 L 0.19400025 0.47459413 L 0.2849884 0.47459413 C 0.32398988 0.47459413 0.34399415 0.4446411 0.34399415 0.4116974 C 0.34399415 0.3767395 0.32299806 0.34179688 0.2849884 0.34179688 L 0.19400025 0.34179688 Z" stroke-linecap="round" />
</g>
<g transform="matrix(76.0808981418 0 0 -76.0808981418 210.994096424 146.1034237256)" id="cdc0XE7gaN8te96t3CZ34"  >
<path style="stroke: none; stroke-width: 1; stroke-dasharray: none; stroke-linecap: butt; stroke-dashoffset: 0; stroke-linejoin: miter; stroke-miterlimit: 4; fill: rgb(255,255,255); fill-rule: nonzero; opacity: 1;"  transform=" translate(-0.27049256, -0.2998047)" d="M 0.04798889 0 L 0.31298829 0 C 0.4269867 0 0.49299623 0.07583618 0.49299623 0.1585846 C 0.49299623 0.22039795 0.46699525 0.26234437 0.40499879 0.3063507 L 0.40499879 0.3083496 C 0.44699098 0.3403473 0.46998597 0.3753662 0.46998597 0.431427 C 0.46998597 0.5255432 0.3899994 0.5996094 0.2899933 0.5996094 L 0.04798889 0.5996094 L 0.04798889 0 M 0.084991458 0.027999878 L 0.084991458 0.57159426 L 0.15699768 0.57159426 L 0.15699768 0.027999878 L 0.084991458 0.027999878 M 0.19400025 0.36035157 L 0.19400025 0.4716034 L 0.2639923 0.4716034 C 0.2979889 0.4716034 0.32199098 0.44754029 0.32199098 0.4164734 C 0.32199098 0.38339234 0.2979889 0.36035157 0.2639923 0.36035157 L 0.19400025 0.36035157 M 0.19400025 0.1309967 L 0.19400025 0.23535156 L 0.2829895 0.23535156 C 0.31698609 0.23535156 0.33898927 0.21148682 0.33898927 0.18267823 C 0.33898927 0.15086365 0.31698609 0.1309967 0.2829895 0.1309967 L 0.19400025 0.1309967 Z" stroke-linecap="round" />
</g>
<g transform="matrix(76.0808981418 0 0 -76.0808981418 248.8442567667 146.1034237256)" id="b74pKY1YyY_AX7yTAtVbr"  >
<path style="stroke: none; stroke-width: 1; stroke-dasharray: none; stroke-linecap: butt; stroke-dashoffset: 0; stroke-linejoin: miter; stroke-miterlimit: 4; fill: rgb(255,255,255); fill-rule: nonzero; opacity: 1;"  transform=" translate(-0.251991275, -0.2998047)" d="M 0.04798889 0 L 0.45599366 0 L 0.45599366 0.12599182 L 0.19499207 0.12599182 L 0.19499207 0.23339844 L 0.42599488 0.23339844 L 0.42599488 0.36138917 L 0.19499207 0.36138917 L 0.19499207 0.4696045 L 0.44499208 0.4696045 L 0.44499208 0.5996094 L 0.04798889 0.5996094 L 0.04798889 0 M 0.084991458 0.027999878 L 0.084991458 0.57159426 L 0.1579895 0.49752809 L 0.1579895 0.09799194 L 0.084991458 0.027999878 Z" stroke-linecap="round" />
</g>
<g transform="matrix(76.0808981418 0 0 -76.0808981418 288.1782349984 146.1034237256)" id="UtlngedE0La9ECY7UaHB4"  >
<path style="stroke: none; stroke-width: 1; stroke-dasharray: none; stroke-linecap: butt; stroke-dashoffset: 0; stroke-linejoin: miter; stroke-miterlimit: 4; fill: rgb(255,255,255); fill-rule: nonzero; opacity: 1;"  transform=" translate(-0.289993295, -0.2998047)" d="M 0.04798889 0 L 0.19499207 0 L 0.19499207 0.22384644 L 0.34799195 0 L 0.5319977 0 L 0.36999513 0.22285462 C 0.45899964 0.24484253 0.5119934 0.3038025 0.5119934 0.40872193 C 0.5119934 0.52163699 0.42799378 0.5996094 0.29899598 0.5996094 L 0.04798889 0.5996094 L 0.04798889 0 M 0.084991458 0.027999878 L 0.084991458 0.57159426 L 0.1579895 0.57159426 L 0.1579895 0.027999878 L 0.084991458 0.027999878 M 0.19499207 0.33976747 L 0.19499207 0.47459413 L 0.30899049 0.47459413 C 0.34199525 0.47459413 0.36799623 0.44363404 0.36799623 0.4086609 C 0.36799623 0.37368775 0.34599305 0.33972169 0.31298829 0.33972169 L 0.19499207 0.33976747 Z" stroke-linecap="round" />
</g>
<g transform="matrix(76.0808981418 0 0 -76.0808981418 328.9575930599 146.1034237256)" id="__Ipd1fanHQiawr9vMIrJ"  >
<path style="stroke: none; stroke-width: 1; stroke-dasharray: none; stroke-linecap: butt; stroke-dashoffset: 0; stroke-linejoin: miter; stroke-miterlimit: 4; fill: rgb(255,255,255); fill-rule: nonzero; opacity: 1;"  transform=" translate(-0.289993295, -0.2998047)" d="M 0.04798889 0 L 0.19499207 0 L 0.19499207 0.22384644 L 0.34799195 0 L 0.5319977 0 L 0.36999513 0.22285462 C 0.45899964 0.24484253 0.5119934 0.3038025 0.5119934 0.40872193 C 0.5119934 0.52163699 0.42799378 0.5996094 0.29899598 0.5996094 L 0.04798889 0.5996094 L 0.04798889 0 M 0.084991458 0.027999878 L 0.084991458 0.57159426 L 0.1579895 0.57159426 L 0.1579895 0.027999878 L 0.084991458 0.027999878 M 0.19499207 0.33976747 L 0.19499207 0.47459413 L 0.30899049 0.47459413 C 0.34199525 0.47459413 0.36799623 0.44363404 0.36799623 0.4086609 C 0.36799623 0.37368775 0.34599305 0.33972169 0.31298829 0.33972169 L 0.19499207 0.33976747 Z" stroke-linecap="round" />
</g>
<g transform="matrix(76.0808981418 0 0 -76.0808981418 366.9219847624 146.1034237256)" id="u0YGa_7doP2JecV_nIRyt"  >
<path style="stroke: none; stroke-width: 1; stroke-dasharray: none; stroke-linecap: butt; stroke-dashoffset: 0; stroke-linejoin: miter; stroke-miterlimit: 4; fill: rgb(255,255,255); fill-rule: nonzero; opacity: 1;"  transform=" translate(-0.3029937855, -0.2998047)" d="M 0.22999573 0 L 0.37599183 0 L 0.37599183 0.28979493 L 0.58898928 0.5996094 L 0.42399598 0.5996094 L 0.30299378 0.41970826 L 0.18299866 0.5996094 L 0.016998291 0.5996094 L 0.22999573 0.28979493 L 0.22999573 0 M 0.36698915 0.33377076 L 0.32598878 0.3947296 L 0.44599916 0.57159426 L 0.5309906 0.57159426 L 0.36698915 0.33377076 Z" stroke-linecap="round" />
</g>
<g transform="matrix(76.0808981418 0 0 -76.0808981418 388.9098262668 168.9128345688)" id="woYnjQorJ5HHGRLVDycul"  >
<path style="stroke: none; stroke-width: 1; stroke-dasharray: none; stroke-linecap: butt; stroke-dashoffset: 0; stroke-linejoin: miter; stroke-miterlimit: 4; fill: rgb(255,255,255); fill-rule: nonzero; opacity: 1;"  transform=" translate(0, 0)" d="M 0 0 Z" stroke-linecap="round" />
</g>
<g transform="matrix(76.0808981418 0 0 -76.0808981418 428.9275108776 146.1034237256)" id="fScgRY6Gf6Jb7eKZrEr20"  >
<path style="stroke: none; stroke-width: 1; stroke-dasharray: none; stroke-linecap: butt; stroke-dashoffset: 0; stroke-linejoin: miter; stroke-miterlimit: 4; fill: rgb(255,255,255); fill-rule: nonzero; opacity: 1;"  transform=" translate(-0.27098847, -0.2998047)" d="M 0.04798889 0 L 0.19400025 0 L 0.19400025 0.2157898 L 0.29899598 0.2157898 C 0.4099884 0.2157898 0.49398805 0.29579164 0.49398805 0.4077301 C 0.49398805 0.50865176 0.42199708 0.5996094 0.29899598 0.5996094 L 0.04798889 0.5996094 L 0.04798889 0 M 0.084991458 0.027999878 L 0.084991458 0.57159426 L 0.15699768 0.57159426 L 0.15699768 0.027999878 L 0.084991458 0.027999878 M 0.19400025 0.34179688 L 0.19400025 0.47459413 L 0.2849884 0.47459413 C 0.32398988 0.47459413 0.34399415 0.4446411 0.34399415 0.4116974 C 0.34399415 0.3767395 0.32299806 0.34179688 0.2849884 0.34179688 L 0.19400025 0.34179688 Z" stroke-linecap="round" />
</g>
<g transform="matrix(76.0808981418 0 0 -76.0808981418 458.6372566137 146.1034237256)" id="fa11ggXJu6jgTaixvy9Bn"  >
<path style="stroke: none; stroke-width: 1; stroke-dasharray: none; stroke-linecap: butt; stroke-dashoffset: 0; stroke-linejoin: miter; stroke-miterlimit: 4; fill: rgb(255,255,255); fill-rule: nonzero; opacity: 1;"  transform=" translate(-0.12149048, -0.2998047)" d="M 0.04798889 0 L 0.19499207 0 L 0.19499207 0.5996094 L 0.04798889 0.5996094 L 0.04798889 0 M 0.084991458 0.027999878 L 0.084991458 0.2418518 L 0.1579895 0.2418518 L 0.1579895 0.027999878 L 0.084991458 0.027999878 Z" stroke-linecap="round" />
</g>
<g transform="matrix(58.5515045651 0 0 -58.5515045651 38.3282426225 201.2884157797)" id="F2KQlWlnLWRLLS0MxKdmV"  >
<path style="stroke: none; stroke-width: 1; stroke-dasharray: none; stroke-linecap: butt; stroke-dashoffset: 0; stroke-linejoin: miter; stroke-miterlimit: 4; fill: rgb(255,255,255); fill-rule: nonzero; opacity: 1;"  transform=" translate(-0.251991275, -0.2998047)" d="M 0.04798889 0 L 0.45599366 0 L 0.45599366 0.12599182 L 0.19499207 0.12599182 L 0.19499207 0.5996094 L 0.04798889 0.5996094 L 0.04798889 0 M 0.084991458 0.027999878 L 0.084991458 0.57159426 L 0.1579895 0.57159426 L 0.1579895 0.09799194 L 0.084991458 0.027999878 Z" stroke-linecap="round" />
</g>
<g transform="matrix(58.5515045651 0 0 -58.5515045651 66.3744158161 201.2884157797)" id="K30KGgmyY4c4ArWBGmwdN"  >
<path style="stroke: none; stroke-width: 1; stroke-dasharray: none; stroke-linecap: butt; stroke-dashoffset: 0; stroke-linejoin: miter; stroke-miterlimit: 4; fill: rgb(255,255,255); fill-rule: nonzero; opacity: 1;"  transform=" translate(-0.251991275, -0.2998047)" d="M 0.04798889 0 L 0.45599366 0 L 0.45599366 0.12599182 L 0.19499207 0.12599182 L 0.19499207 0.23339844 L 0.42599488 0.23339844 L 0.42599488 0.36138917 L 0.19499207 0.36138917 L 0.19499207 0.4696045 L 0.44499208 0.4696045 L 0.44499208 0.5996094 L 0.04798889 0.5996094 L 0.04798889 0 M 0.084991458 0.027999878 L 0.084991458 0.57159426 L 0.1579895 0.49752809 L 0.1579895 0.09799194 L 0.084991458 0.027999878 Z" stroke-linecap="round" />
</g>
<g transform="matrix(58.5515045651 0 0 -58.5515045651 97.7874618316 201.2884157797)" id="lSq95Y2r02ce2HDOfGElm"  >
<path style="stroke: none; stroke-width: 1; stroke-dasharray: none; stroke-linecap: butt; stroke-dashoffset: 0; stroke-linejoin: miter; stroke-miterlimit: 4; fill: rgb(255,255,255); fill-rule: nonzero; opacity: 1;"  transform=" translate(-0.30949403, -0.2998047)" d="M 0.04798889 0 L 0.25698854 0 C 0.44898988 0 0.57099917 0.14091492 0.57099917 0.3007965 C 0.57099917 0.4696808 0.43399049 0.5996094 0.25698854 0.5996094 L 0.04798889 0.5996094 L 0.04798889 0 M 0.084991458 0.027999878 L 0.084991458 0.57159426 L 0.1579895 0.57159426 L 0.1579895 0.027999878 L 0.084991458 0.027999878 M 0.19499207 0.13398743 L 0.19499207 0.4665985 L 0.2539978 0.4665985 C 0.35699464 0.4665985 0.41999818 0.39369203 0.41999818 0.3007965 C 0.41999818 0.19992066 0.34799195 0.13398743 0.2539978 0.13398743 L 0.19499207 0.13398743 Z" stroke-linecap="round" />
</g>
<g transform="matrix(58.5515045651 0 0 -58.5515045651 114.9726829878 218.8424320404)" id="pZfhZKNFU2MOZ2IVo-3WV"  >
<path style="stroke: none; stroke-width: 1; stroke-dasharray: none; stroke-linecap: butt; stroke-dashoffset: 0; stroke-linejoin: miter; stroke-miterlimit: 4; fill: rgb(255,255,255); fill-rule: nonzero; opacity: 1;"  transform=" translate(0, 0)" d="M 0 0 Z" stroke-linecap="round" />
</g>
<g transform="matrix(58.5515045651 0 0 -58.5515045651 148.9317308099 201.2598265437)" id="9ZztiO3mp-1YuIkbft-Am"  >
<path style="stroke: none; stroke-width: 1; stroke-dasharray: none; stroke-linecap: butt; stroke-dashoffset: 0; stroke-linejoin: miter; stroke-miterlimit: 4; fill: rgb(255,255,255); fill-rule: nonzero; opacity: 1;"  transform=" translate(-0.3449859485, -0.300292975)" d="M 0.053985597 0.3002777 C 0.053985597 0.12113953 0.18899536 -0.01953125 0.3789978 -0.01953125 C 0.48999024 -0.01953125 0.57299807 0.027389527 0.6329956 0.09013367 L 0.5349884 0.18618775 C 0.49299623 0.14515686 0.43899537 0.119140628 0.3789978 0.119140628 C 0.27198792 0.119140628 0.20298767 0.19920349 0.20298767 0.3002777 C 0.20298767 0.4013672 0.27198792 0.4814453 0.3789978 0.4814453 C 0.43899537 0.4814453 0.49299623 0.45541383 0.5349884 0.41438294 L 0.6359863 0.510437 C 0.57199099 0.5771637 0.49299623 0.6201172 0.3789978 0.6201172 C 0.18899536 0.6201172 0.053985597 0.47943116 0.053985597 0.3002777 M 0.3789978 0.5094452 L 0.3789978 0.59210208 C 0.46899415 0.59210208 0.5379944 0.56422427 0.59098818 0.510437 L 0.5339966 0.45541383 C 0.4909973 0.48843385 0.43598939 0.5094452 0.3789978 0.5094452 M 0.3789978 0.008468628 L 0.3789978 0.09112549 C 0.43899537 0.09112549 0.49598695 0.11413574 0.5319977 0.14614868 L 0.58898928 0.088150028 C 0.5329895 0.036346437 0.46699525 0.008468628 0.3789978 0.008468628 Z" stroke-linecap="round" />
</g>
<g transform="matrix(58.5515045651 0 0 -58.5515045651 187.6345902067 201.2598265437)" id="_FgdcWOxkD-_eieLrMT4T"  >
<path style="stroke: none; stroke-width: 1; stroke-dasharray: none; stroke-linecap: butt; stroke-dashoffset: 0; stroke-linejoin: miter; stroke-miterlimit: 4; fill: rgb(255,255,255); fill-rule: nonzero; opacity: 1;"  transform=" translate(-0.3769912835, -0.300292975)" d="M 0.053985597 0.30012513 C 0.053985597 0.12113953 0.18699646 -0.01953125 0.3769989 -0.01953125 C 0.56599429 -0.01953125 0.69999697 0.12113953 0.69999697 0.30012513 C 0.69999697 0.47911073 0.56599429 0.6201172 0.3769989 0.6201172 C 0.18699646 0.6201172 0.053985597 0.47911073 0.053985597 0.30012513 M 0.20298767 0.30012513 C 0.20298767 0.4011078 0.269989 0.48110963 0.3769989 0.48110963 C 0.48298646 0.48110963 0.5509949 0.4011078 0.5509949 0.30012513 C 0.5509949 0.1991272 0.48298646 0.119140628 0.3769989 0.119140628 C 0.269989 0.119140628 0.20298767 0.1991272 0.20298767 0.30012513 M 0.09700012 0.23712158 L 0.17399597 0.23712158 C 0.19799805 0.1511383 0.27198792 0.088134769 0.3769989 0.088134769 C 0.48199464 0.088134769 0.55599978 0.15013123 0.5799866 0.23712158 L 0.6569977 0.23712158 C 0.6299896 0.10614014 0.5209961 0.010467529 0.3769989 0.010467529 C 0.23199463 0.010467529 0.12298584 0.10513306 0.09700012 0.23712158 Z" stroke-linecap="round" />
</g>
<g transform="matrix(58.5515045651 0 0 -58.5515045651 228.1524412327 201.2884157797)" id="CZqGLHH2M77l9_j1Q7LDz"  >
<path style="stroke: none; stroke-width: 1; stroke-dasharray: none; stroke-linecap: butt; stroke-dashoffset: 0; stroke-linejoin: miter; stroke-miterlimit: 4; fill: rgb(255,255,255); fill-rule: nonzero; opacity: 1;"  transform=" translate(-0.314994825, -0.2998047)" d="M 0.04798889 0 L 0.19499207 0 L 0.19499207 0.3567505 L 0.42900086 0 L 0.58200076 0 L 0.58200076 0.5996094 L 0.43598939 0.5996094 L 0.43598939 0.24383545 L 0.20298767 0.5996094 L 0.04798889 0.5996094 L 0.04798889 0 M 0.47299195 0.2068634 L 0.47299195 0.57159426 L 0.54499819 0.57159426 L 0.54499819 0.094940189 L 0.47299195 0.2068634 M 0.084991458 0.027999878 L 0.084991458 0.50865176 L 0.1579895 0.3937378 L 0.1579895 0.027999878 L 0.084991458 0.027999878 Z" stroke-linecap="round" />
</g>
<g transform="matrix(58.5515045651 0 0 -58.5515045651 260.0041066341 201.2884157797)" id="qj2u0fO507_d4bhF2tjT9"  >
<path style="stroke: none; stroke-width: 1; stroke-dasharray: none; stroke-linecap: butt; stroke-dashoffset: 0; stroke-linejoin: miter; stroke-miterlimit: 4; fill: rgb(255,255,255); fill-rule: nonzero; opacity: 1;"  transform=" translate(-0.228988652, -0.2998047)" d="M 0.1539917 0 L 0.3019867 0 L 0.3019867 0.4696045 L 0.43798829 0.4696045 L 0.43798829 0.5996094 L 0.019989014 0.5996094 L 0.019989014 0.4696045 L 0.1539917 0.4696045 L 0.1539917 0 M 0.18899536 0.027999878 L 0.18899536 0.4696045 L 0.2659912 0.4696045 L 0.2659912 0.027999878 L 0.18899536 0.027999878 Z" stroke-linecap="round" />
</g>
<g transform="matrix(58.5515045651 0 0 -58.5515045651 290.3926143719 201.2884157797)" id="4xONne9M2dl9JlmYhuOZO"  >
<path style="stroke: none; stroke-width: 1; stroke-dasharray: none; stroke-linecap: butt; stroke-dashoffset: 0; stroke-linejoin: miter; stroke-miterlimit: 4; fill: rgb(255,255,255); fill-rule: nonzero; opacity: 1;"  transform=" translate(-0.289993295, -0.2998047)" d="M 0.04798889 0 L 0.19499207 0 L 0.19499207 0.22384644 L 0.34799195 0 L 0.5319977 0 L 0.36999513 0.22285462 C 0.45899964 0.24484253 0.5119934 0.3038025 0.5119934 0.40872193 C 0.5119934 0.52163699 0.42799378 0.5996094 0.29899598 0.5996094 L 0.04798889 0.5996094 L 0.04798889 0 M 0.084991458 0.027999878 L 0.084991458 0.57159426 L 0.1579895 0.57159426 L 0.1579895 0.027999878 L 0.084991458 0.027999878 M 0.19499207 0.33976747 L 0.19499207 0.47459413 L 0.30899049 0.47459413 C 0.34199525 0.47459413 0.36799623 0.44363404 0.36799623 0.4086609 C 0.36799623 0.37368775 0.34599305 0.33972169 0.31298829 0.33972169 L 0.19499207 0.33976747 Z" stroke-linecap="round" />
</g>
<g transform="matrix(58.5515045651 0 0 -58.5515045651 326.8700751653 201.2598265437)" id="pAXUMQb88ElCn59NQdFq0"  >
<path style="stroke: none; stroke-width: 1; stroke-dasharray: none; stroke-linecap: butt; stroke-dashoffset: 0; stroke-linejoin: miter; stroke-miterlimit: 4; fill: rgb(255,255,255); fill-rule: nonzero; opacity: 1;"  transform=" translate(-0.3769912835, -0.300292975)" d="M 0.053985597 0.30012513 C 0.053985597 0.12113953 0.18699646 -0.01953125 0.3769989 -0.01953125 C 0.56599429 -0.01953125 0.69999697 0.12113953 0.69999697 0.30012513 C 0.69999697 0.47911073 0.56599429 0.6201172 0.3769989 0.6201172 C 0.18699646 0.6201172 0.053985597 0.47911073 0.053985597 0.30012513 M 0.20298767 0.30012513 C 0.20298767 0.4011078 0.269989 0.48110963 0.3769989 0.48110963 C 0.48298646 0.48110963 0.5509949 0.4011078 0.5509949 0.30012513 C 0.5509949 0.1991272 0.48298646 0.119140628 0.3769989 0.119140628 C 0.269989 0.119140628 0.20298767 0.1991272 0.20298767 0.30012513 M 0.09700012 0.23712158 L 0.17399597 0.23712158 C 0.19799805 0.1511383 0.27198792 0.088134769 0.3769989 0.088134769 C 0.48199464 0.088134769 0.55599978 0.15013123 0.5799866 0.23712158 L 0.6569977 0.23712158 C 0.6299896 0.10614014 0.5209961 0.010467529 0.3769989 0.010467529 C 0.23199463 0.010467529 0.12298584 0.10513306 0.09700012 0.23712158 Z" stroke-linecap="round" />
</g>
<g transform="matrix(58.5515045651 0 0 -58.5515045651 363.698994437 201.2884157797)" id="ZF4w7bgssdcIqV99vT56K"  >
<path style="stroke: none; stroke-width: 1; stroke-dasharray: none; stroke-linecap: butt; stroke-dashoffset: 0; stroke-linejoin: miter; stroke-miterlimit: 4; fill: rgb(255,255,255); fill-rule: nonzero; opacity: 1;"  transform=" translate(-0.251991275, -0.2998047)" d="M 0.04798889 0 L 0.45599366 0 L 0.45599366 0.12599182 L 0.19499207 0.12599182 L 0.19499207 0.5996094 L 0.04798889 0.5996094 L 0.04798889 0 M 0.084991458 0.027999878 L 0.084991458 0.57159426 L 0.1579895 0.57159426 L 0.1579895 0.09799194 L 0.084991458 0.027999878 Z" stroke-linecap="round" />
</g>
<g transform="matrix(58.5515045651 0 0 -58.5515045651 391.7451676306 201.2884157797)" id="J7kNUZn6v1KmntX9nNYY1"  >
<path style="stroke: none; stroke-width: 1; stroke-dasharray: none; stroke-linecap: butt; stroke-dashoffset: 0; stroke-linejoin: miter; stroke-miterlimit: 4; fill: rgb(255,255,255); fill-rule: nonzero; opacity: 1;"  transform=" translate(-0.251991275, -0.2998047)" d="M 0.04798889 0 L 0.45599366 0 L 0.45599366 0.12599182 L 0.19499207 0.12599182 L 0.19499207 0.5996094 L 0.04798889 0.5996094 L 0.04798889 0 M 0.084991458 0.027999878 L 0.084991458 0.57159426 L 0.1579895 0.57159426 L 0.1579895 0.09799194 L 0.084991458 0.027999878 Z" stroke-linecap="round" />
</g>
<g transform="matrix(58.5515045651 0 0 -58.5515045651 419.7913512696 201.2884157797)" id="sW2vvAMeR1yFo5mVyEvVq"  >
<path style="stroke: none; stroke-width: 1; stroke-dasharray: none; stroke-linecap: butt; stroke-dashoffset: 0; stroke-linejoin: miter; stroke-miterlimit: 4; fill: rgb(255,255,255); fill-rule: nonzero; opacity: 1;"  transform=" translate(-0.251991275, -0.2998047)" d="M 0.04798889 0 L 0.45599366 0 L 0.45599366 0.12599182 L 0.19499207 0.12599182 L 0.19499207 0.23339844 L 0.42599488 0.23339844 L 0.42599488 0.36138917 L 0.19499207 0.36138917 L 0.19499207 0.4696045 L 0.44499208 0.4696045 L 0.44499208 0.5996094 L 0.04798889 0.5996094 L 0.04798889 0 M 0.084991458 0.027999878 L 0.084991458 0.57159426 L 0.1579895 0.49752809 L 0.1579895 0.09799194 L 0.084991458 0.027999878 Z" stroke-linecap="round" />
</g>
<g transform="matrix(58.5515045651 0 0 -58.5515045651 450.0626103563 201.2884157797)" id="U7NoYqkF-EUIgn7Tkpy_D"  >
<path style="stroke: none; stroke-width: 1; stroke-dasharray: none; stroke-linecap: butt; stroke-dashoffset: 0; stroke-linejoin: miter; stroke-miterlimit: 4; fill: rgb(255,255,255); fill-rule: nonzero; opacity: 1;"  transform=" translate(-0.289993295, -0.2998047)" d="M 0.04798889 0 L 0.19499207 0 L 0.19499207 0.22384644 L 0.34799195 0 L 0.5319977 0 L 0.36999513 0.22285462 C 0.45899964 0.24484253 0.5119934 0.3038025 0.5119934 0.40872193 C 0.5119934 0.52163699 0.42799378 0.5996094 0.29899598 0.5996094 L 0.04798889 0.5996094 L 0.04798889 0 M 0.084991458 0.027999878 L 0.084991458 0.57159426 L 0.1579895 0.57159426 L 0.1579895 0.027999878 L 0.084991458 0.027999878 M 0.19499207 0.33976747 L 0.19499207 0.47459413 L 0.30899049 0.47459413 C 0.34199525 0.47459413 0.36799623 0.44363404 0.36799623 0.4086609 C 0.36799623 0.37368775 0.34599305 0.33972169 0.31298829 0.33972169 L 0.19499207 0.33976747 Z" stroke-linecap="round" />
</g>
</svg>