<svg xmlns="http://www.w3.org/2000/svg" xmlns:xlink="http://www.w3.org/1999/xlink" version="1.1" width="460.8pt" height="120pt" viewBox="0 0 460.8 120">
<defs>
<path id="font_0_20" d="M.04798889 0H.19499207V.22384644L.34799195 0H.5319977L.36999513 .22285462C.45899964 .24484253 .5119934 .3038025 .5119934 .40872193 .5119934 .52163699 .42799378 .5996094 .29899598 .5996094H.04798889V0M.084991458 .027999878V.57159426H.1579895V.027999878H.084991458M.19499207 .33976747V.47459413H.30899049C.34199525 .47459413 .36799623 .44363404 .36799623 .4086609 .36799623 .37368775 .34599305 .33972169 .31298829 .33972169L.19499207 .33976747Z"/>
<path id="font_0_3" d="M.015991211 0H.17399597L.20298767 .0619812H.43998719L.46998597 0H.6279907L.33399964 .6201172H.30799867L.015991211 0M.24899292 .16699219 .31900025 .31903077H.32099916L.3899994 .16699219H.24899292M.42999269 .16699219H.5109863L.57699587 .027999878H.49398805L.42999269 .16699219M.06599426 .027999878 .13198853 .16699219H.21299744L.147995 .027999878H.06599426Z"/>
<path id="font_0_21" d="M.04499817 .17643738C.04499817 .0683136 .11898804-.01953125 .25-.01953125 .36299134-.01953125 .45298768 .0683136 .45298768 .17442322 .45298768 .2683258 .40299989 .32824708 .29599 .36021424 .24499512 .37519837 .18998719 .38319398 .18998719 .42814637 .18998719 .46722413 .22099304 .48632813 .25299073 .48632813 .2939911 .48632813 .31498719 .45817567 .31498719 .4241333H.45298768C.44499208 .53526309 .38198854 .6201172 .24899292 .6201172 .13598633 .6201172 .04499817 .53227236 .04499817 .42614747 .04499817 .32325746 .100997928 .2763214 .20199585 .24035645 .25099183 .22337342 .30999757 .21038819 .30999757 .16543579 .30999757 .1343689 .2869873 .11328125 .25 .11328125 .21598816 .11328125 .18798828 .1414032 .18798828 .17643738H.04499817M.34199525 .45214845C.33299256 .47727967 .31199647 .514328 .25 .514328V.59210208C.36698915 .59210208 .41099549 .511322 .4169922 .45214845H.34199525M.07998657 .1484375H.1579895C.16699219 .11528015 .19898987 .08627319 .25 .08526611V.008468628C.15499878 .008468628 .08198547 .07330322 .07998657 .1484375Z"/>
<path id="font_0_18" d="M.04798889 0H.19400025V.2157898H.29899598C.4099884 .2157898 .49398805 .29579164 .49398805 .4077301 .49398805 .50865176 .42199708 .5996094 .29899598 .5996094H.04798889V0M.084991458 .027999878V.57159426H.15699768V.027999878H.084991458M.19400025 .34179688V.47459413H.2849884C.32398988 .47459413 .34399415 .4446411 .34399415 .4116974 .34399415 .3767395 .32299806 .34179688 .2849884 .34179688H.19400025Z"/>
<path id="font_0_4" d="M.04798889 0H.31298829C.4269867 0 .49299623 .07583618 .49299623 .1585846 .49299623 .22039795 .46699525 .26234437 .40499879 .3063507V.3083496C.44699098 .3403473 .46998597 .3753662 .46998597 .431427 .46998597 .5255432 .3899994 .5996094 .2899933 .5996094H.04798889V0M.084991458 .027999878V.57159426H.15699768V.027999878H.084991458M.19400025 .36035157V.4716034H.2639923C.2979889 .4716034 .32199098 .44754029 .32199098 .4164734 .32199098 .38339234 .2979889 .36035157 .2639923 .36035157H.19400025M.19400025 .1309967V.23535156H.2829895C.31698609 .23535156 .33898927 .21148682 .33898927 .18267823 .33898927 .15086365 .31698609 .1309967 .2829895 .1309967H.19400025Z"/>
<path id="font_0_7" d="M.04798889 0H.45599366V.12599182H.19499207V.23339844H.42599488V.36138917H.19499207V.4696045H.44499208V.5996094H.04798889V0M.084991458 .027999878V.57159426L.1579895 .49752809V.09799194L.084991458 .027999878Z"/>
<path id="font_0_27" d="M.22999573 0H.37599183V.28979493L.58898928 .5996094H.42399598L.30299378 .41970826 .18299866 .5996094H.016998291L.22999573 .28979493V0M.36698915 .33377076 .32598878 .3947296 .44599916 .57159426H.5309906L.36698915 .33377076Z"/>
<path id="font_0_1" d="M0 0Z"/>
<path id="font_1_49" d="M.04798889 0H.19400025V.2157898H.29899598C.4099884 .2157898 .49398805 .29579164 .49398805 .4077301 .49398805 .50865176 .42199708 .5996094 .29899598 .5996094H.04798889V0M.084991458 .027999878V.57159426H.15699768V.027999878H.084991458M.19400025 .34179688V.47459413H.2849884C.32398988 .47459413 .34399415 .4446411 .34399415 .4116974 .34399415 .3767395 .32299806 .34179688 .2849884 .34179688H.19400025Z"/>
<path id="font_1_42" d="M.04798889 0H.19499207V.5996094H.04798889V0M.084991458 .027999878V.2418518H.1579895V.027999878H.084991458Z"/>
<path id="font_0_14" d="M.04798889 0H.45599366V.12599182H.19499207V.5996094H.04798889V0M.084991458 .027999878V.57159426H.1579895V.09799194L.084991458 .027999878Z"/>
<path id="font_0_6" d="M.04798889 0H.25698854C.44898988 0 .57099917 .14091492 .57099917 .3007965 .57099917 .4696808 .43399049 .5996094 .25698854 .5996094H.04798889V0M.084991458 .027999878V.57159426H.1579895V.027999878H.084991458M.19499207 .13398743V.4665985H.2539978C.35699464 .4665985 .41999818 .39369203 .41999818 .3007965 .41999818 .19992066 .34799195 .13398743 .2539978 .13398743H.19499207Z"/>
<path id="font_1_36" d="M.053985597 .3002777C.053985597 .12113953 .18899536-.01953125 .3789978-.01953125 .48999024-.01953125 .57299807 .027389527 .6329956 .09013367L.5349884 .18618775C.49299623 .14515686 .43899537 .119140628 .3789978 .119140628 .27198792 .119140628 .20298767 .19920349 .20298767 .3002777 .20298767 .4013672 .27198792 .4814453 .3789978 .4814453 .43899537 .4814453 .49299623 .45541383 .5349884 .41438294L.6359863 .510437C.57199099 .5771637 .49299623 .6201172 .3789978 .6201172 .18899536 .6201172 .053985597 .47943116 .053985597 .3002777M.3789978 .5094452V.59210208C.46899415 .59210208 .5379944 .56422427 .59098818 .510437L.5339966 .45541383C.4909973 .48843385 .43598939 .5094452 .3789978 .5094452M.3789978 .008468628V.09112549C.43899537 .09112549 .49598695 .11413574 .5319977 .14614868L.58898928 .088150028C.5329895 .036346437 .46699525 .008468628 .3789978 .008468628Z"/>
<path id="font_1_48" d="M.053985597 .30012513C.053985597 .12113953 .18699646-.01953125 .3769989-.01953125 .56599429-.01953125 .69999697 .12113953 .69999697 .30012513 .69999697 .47911073 .56599429 .6201172 .3769989 .6201172 .18699646 .6201172 .053985597 .47911073 .053985597 .30012513M.20298767 .30012513C.20298767 .4011078 .269989 .48110963 .3769989 .48110963 .48298646 .48110963 .5509949 .4011078 .5509949 .30012513 .5509949 .1991272 .48298646 .119140628 .3769989 .119140628 .269989 .119140628 .20298767 .1991272 .20298767 .30012513M.09700012 .23712158H.17399597C.19799805 .1511383 .27198792 .088134769 .3769989 .088134769 .48199464 .088134769 .55599978 .15013123 .5799866 .23712158H.6569977C.6299896 .10614014 .5209961 .010467529 .3769989 .010467529 .23199463 .010467529 .12298584 .10513306 .09700012 .23712158Z"/>
<path id="font_1_47" d="M.04798889 0H.19499207V.3567505L.42900086 0H.58200076V.5996094H.43598939V.24383545L.20298767 .5996094H.04798889V0M.47299195 .2068634V.57159426H.54499819V.094940189L.47299195 .2068634M.084991458 .027999878V.50865176L.1579895 .3937378V.027999878H.084991458Z"/>
<path id="font_1_53" d="M.1539917 0H.3019867V.4696045H.43798829V.5996094H.019989014V.4696045H.1539917V0M.18899536 .027999878V.4696045H.2659912V.027999878H.18899536Z"/>
<path id="font_1_51" d="M.04798889 0H.19499207V.22384644L.34799195 0H.5319977L.36999513 .22285462C.45899964 .24484253 .5119934 .3038025 .5119934 .40872193 .5119934 .52163699 .42799378 .5996094 .29899598 .5996094H.04798889V0M.084991458 .027999878V.57159426H.1579895V.027999878H.084991458M.19499207 .33976747V.47459413H.30899049C.34199525 .47459413 .36799623 .44363404 .36799623 .4086609 .36799623 .37368775 .34599305 .33972169 .31298829 .33972169L.19499207 .33976747Z"/>
<path id="font_1_45" d="M.04798889 0H.45599366V.12599182H.19499207V.5996094H.04798889V0M.084991458 .027999878V.57159426H.1579895V.09799194L.084991458 .027999878Z"/>
<path id="font_1_38" d="M.04798889 0H.45599366V.12599182H.19499207V.23339844H.42599488V.36138917H.19499207V.4696045H.44499208V.5996094H.04798889V0M.084991458 .027999878V.57159426L.1579895 .49752809V.09799194L.084991458 .027999878Z"/>
</defs>
<g>
<path transform="matrix(1,0,0,-1,0,120)" d="M0 0H460.811V120.003H0Z" fill="#ffffff"/>
<use data-text="R" xlink:href="#font_0_20" transform="matrix(72.8362,0,0,-72.8362,12.825,57.9272)" fill="#222222"/>
<use data-text="A" xlink:href="#font_0_3" transform="matrix(72.8362,0,0,-72.8362,51.865205,57.9272)" fill="#222222"/>
<use data-text="S" xlink:href="#font_0_21" transform="matrix(72.8362,0,0,-72.8362,97.31499,57.9272)" fill="#222222"/>
<use data-text="P" xlink:href="#font_0_18" transform="matrix(72.8362,0,0,-72.8362,134.02443,57.9272)" fill="#222222"/>
<use data-text="B" xlink:href="#font_0_4" transform="matrix(72.8362,0,0,-72.8362,173.35597,57.9272)" fill="#222222"/>
<use data-text="E" xlink:href="#font_0_7" transform="matrix(72.8362,0,0,-72.8362,210.93946,57.9272)" fill="#222222"/>
<use data-text="R" xlink:href="#font_0_20" transform="matrix(72.8362,0,0,-72.8362,245.828,57.9272)" fill="#222222"/>
<use data-text="R" xlink:href="#font_0_20" transform="matrix(72.8362,0,0,-72.8362,284.8682,57.9272)" fill="#222222"/>
<use data-text="Y" xlink:href="#font_0_27" transform="matrix(72.8362,0,0,-72.8362,320.26658,57.9272)" fill="#222222"/>
<use data-text=" " xlink:href="#font_0_1" transform="matrix(72.8362,0,0,-72.8362,363.3856,57.9272)" fill="#222222"/>
<use data-text="P" xlink:href="#font_1_49" transform="matrix(72.8362,0,0,-72.8362,381.95884,57.9272)" fill="#222222"/>
<use data-text="I" xlink:href="#font_1_42" transform="matrix(72.8362,0,0,-72.8362,421.29039,57.9272)" fill="#222222"/>
<use data-text="L" xlink:href="#font_0_14" transform="matrix(56.0544,0,0,-56.0544,13.6304,105.7274)" fill="#222222"/>
<use data-text="E" xlink:href="#font_0_7" transform="matrix(56.0544,0,0,-56.0544,40.48046,105.7274)" fill="#222222"/>
<use data-text="D" xlink:href="#font_0_6" transform="matrix(56.0544,0,0,-56.0544,67.33052,105.7274)" fill="#222222"/>
<use data-text=" " xlink:href="#font_0_1" transform="matrix(56.0544,0,0,-56.0544,101.131328,105.7274)" fill="#222222"/>
<use data-text="C" xlink:href="#font_1_36" transform="matrix(56.0544,0,0,-56.0544,114.30411,105.7274)" fill="#222222"/>
<use data-text="O" xlink:href="#font_1_48" transform="matrix(56.0544,0,0,-56.0544,149.56233,105.7274)" fill="#222222"/>
<use data-text="N" xlink:href="#font_1_47" transform="matrix(56.0544,0,0,-56.0544,191.82735,105.7274)" fill="#222222"/>
<use data-text="T" xlink:href="#font_1_53" transform="matrix(56.0544,0,0,-56.0544,227.14163,105.7274)" fill="#222222"/>
<use data-text="R" xlink:href="#font_1_51" transform="matrix(56.0544,0,0,-56.0544,252.81455,105.7274)" fill="#222222"/>
<use data-text="O" xlink:href="#font_1_48" transform="matrix(56.0544,0,0,-56.0544,282.8597,105.7274)" fill="#222222"/>
<use data-text="L" xlink:href="#font_1_45" transform="matrix(56.0544,0,0,-56.0544,325.12474,105.7274)" fill="#222222"/>
<use data-text="L" xlink:href="#font_1_45" transform="matrix(56.0544,0,0,-56.0544,351.9748,105.7274)" fill="#222222"/>
<use data-text="E" xlink:href="#font_1_38" transform="matrix(56.0544,0,0,-56.0544,378.82487,105.7274)" fill="#222222"/>
<use data-text="R" xlink:href="#font_1_51" transform="matrix(56.0544,0,0,-56.0544,405.67494,105.7274)" fill="#222222"/>
</g>
</svg>
